
<global>
amp_veltrack=0
ampeg_attack=0.005
ampeg_release=0.50
xf_cccurve=gain
xfin_hicc1=127
xfout_hicc1=127
xfout_locc1=127
</global>

<group>
group_label=FF

<region>
hikey=C4
hivel=127
lokey=b3
loop_end=274477
loop_mode=loop_continuous
loop_start=71602
loop_xfade=24287
lovel=0
offset=3144
pitch_keycenter=b3
sample=Alto_sustain_FF_A3.opus
</region>

<region>
hikey=C5
hivel=127
lokey=b4
loop_end=282876
loop_mode=loop_continuous
loop_start=73793
loop_xfade=25030
lovel=0
offset=1416
pitch_keycenter=b4
sample=Alto_sustain_FF_A4.opus
</region>

<region>
hikey=C6
hivel=127
lokey=b5
loop_end=273613
loop_mode=loop_continuous
loop_start=71377
loop_xfade=24211
lovel=0
offset=483
pitch_keycenter=b5
sample=Alto_sustain_FF_A5.opus
</region>

<region>
hikey=D4
hivel=127
lokey=c#4
loop_end=272385
loop_mode=loop_continuous
loop_start=71056
loop_xfade=24102
lovel=0
offset=1455
pitch_keycenter=c#4
sample=Alto_sustain_FF_B3.opus
</region>

<region>
hikey=D5
hivel=127
lokey=c#5
loop_end=269801
loop_mode=loop_continuous
loop_start=71166
loop_xfade=9010
lovel=0
offset=662
pitch_keycenter=c#5
sample=Alto_sustain_FF_B4.opus
</region>

<region>
hikey=D6
hivel=127
lokey=c#6
loop_end=271950
loop_mode=loop_continuous
loop_start=70943
loop_xfade=24064
lovel=0
offset=496
pitch_keycenter=c#6
sample=Alto_sustain_FF_B5.opus
</region>

<region>
hikey=E4
hivel=127
lokey=d#4
loop_end=267187
loop_mode=loop_continuous
loop_start=69701
loop_xfade=23642
lovel=0
offset=1265
pitch_keycenter=d#4
sample=Alto_sustain_FF_C#4.opus
</region>

<region>
hikey=E5
hivel=127
lokey=d#5
loop_end=275913
loop_mode=loop_continuous
loop_start=71977
loop_xfade=24414
lovel=0
offset=3477
pitch_keycenter=d#5
sample=Alto_sustain_FF_C#5.opus
</region>

<region>
hikey=F#4
hivel=127
lokey=f4
loop_end=276863
loop_mode=loop_continuous
loop_start=72225
loop_xfade=24498
lovel=0
offset=2135
pitch_keycenter=f4
sample=Alto_sustain_FF_D#4.opus
</region>

<region>
hikey=F#5
hivel=127
lokey=f5
loop_end=253928
loop_mode=loop_continuous
loop_start=66242
loop_xfade=22469
lovel=0
offset=865
pitch_keycenter=f5
sample=Alto_sustain_FF_D#5.opus
</region>

<region>
hikey=G#3
hivel=127
lokey=g3
loop_end=277967
loop_mode=loop_continuous
loop_start=72513
loop_xfade=24596
lovel=0
offset=762
pitch_keycenter=g3
sample=Alto_sustain_FF_F3.opus
</region>

<region>
hikey=G#4
hivel=127
lokey=g4
loop_end=280688
loop_mode=loop_continuous
loop_start=73222
loop_xfade=24837
lovel=0
offset=752
pitch_keycenter=g4
sample=Alto_sustain_FF_F4.opus
</region>

<region>
hikey=G#5
hivel=127
lokey=g5
loop_end=270265
loop_mode=loop_continuous
loop_start=70503
loop_xfade=23914
lovel=0
offset=730
pitch_keycenter=g5
sample=Alto_sustain_FF_F5.opus
</region>

<region>
hikey=A#3
hivel=127
lokey=a3
loop_end=278612
loop_mode=loop_continuous
loop_start=72681
loop_xfade=24653
lovel=0
offset=2673
pitch_keycenter=a3
sample=Alto_sustain_FF_G3.opus
</region>

<region>
hikey=A#4
hivel=127
lokey=a4
loop_end=286552
loop_mode=loop_continuous
loop_start=74752
loop_xfade=25356
lovel=0
offset=1202
pitch_keycenter=a4
sample=Alto_sustain_FF_G4.opus
</region>

<region>
hikey=A#5
hivel=127
lokey=a5
loop_end=270773
loop_mode=loop_continuous
loop_start=70636
loop_xfade=23959
lovel=0
offset=1005
pitch_keycenter=a5
sample=Alto_sustain_FF_G5.opus
</region>
</group>